REM DIRINDEX 1\2,1\3\5,1\3\6,1\4\7,1\4\8
REM DIRNAME cjc139,folder01,folder02,folder03,folder04,folder05,folder06,folder07
TITLE ""
FILE "EG_E1.5_24.mp3" MP3
  TRACK 01 AUDIO
    TITLE "0:"
    INDEX 01 00:00:00
  TRACK 02 AUDIO
    TITLE "2:cjc139_0818"
    INDEX 01 00:00:17
  TRACK 03 AUDIO
    TITLE "0:"
    INDEX 01 00:02:61
  TRACK 04 AUDIO
    TITLE "2:cjc139_0819"
    INDEX 01 00:04:07
  TRACK 05 AUDIO
    TITLE "0:"
    INDEX 01 00:06:51
  TRACK 06 AUDIO
    TITLE "2:cjc139_0820"
    INDEX 01 00:07:72
  TRACK 07 AUDIO
    TITLE "0:"
    INDEX 01 00:10:53
  TRACK 08 AUDIO
    TITLE "2:cjc139_0821"
    INDEX 01 00:12:01
  TRACK 09 AUDIO
    TITLE "0:"
    INDEX 01 00:15:23
  TRACK 10 AUDIO
    TITLE "2:cjc139_0822"
    INDEX 01 00:16:48
  TRACK 11 AUDIO
    TITLE "0:"
    INDEX 01 00:19:54
  TRACK 12 AUDIO
    TITLE "2:cjc139_0823"
    INDEX 01 00:20:73
  TRACK 13 AUDIO
    TITLE "0:"
    INDEX 01 00:23:59
  TRACK 14 AUDIO
    TITLE "2:cjc139_0824"
    INDEX 01 00:25:05
  TRACK 15 AUDIO
    TITLE "0:"
    INDEX 01 00:28:57
  TRACK 16 AUDIO
    TITLE "2:cjc139_0825"
    INDEX 01 00:30:01
  TRACK 17 AUDIO
    TITLE "0:"
    INDEX 01 00:33:30
  TRACK 18 AUDIO
    TITLE "2:cjc139_0826"
    INDEX 01 00:34:53
  TRACK 19 AUDIO
    TITLE "0:"
    INDEX 01 00:37:54
  TRACK 20 AUDIO
    TITLE "2:cjc139_0827"
    INDEX 01 00:39:00
  TRACK 21 AUDIO
    TITLE "0:"
    INDEX 01 00:41:63
  TRACK 22 AUDIO
    TITLE "2:cjc139_0828"
    INDEX 01 00:43:09
  TRACK 23 AUDIO
    TITLE "0:"
    INDEX 01 00:46:19
  TRACK 24 AUDIO
    TITLE "2:cjc139_0829"
    INDEX 01 00:47:44
  TRACK 25 AUDIO
    TITLE "0:"
    INDEX 01 00:50:17
  TRACK 26 AUDIO
    TITLE "2:cjc139_0830"
    INDEX 01 00:51:40
  TRACK 27 AUDIO
    TITLE "0:"
    INDEX 01 00:55:01
  TRACK 28 AUDIO
    TITLE "2:cjc139_0831"
    INDEX 01 00:56:25
  TRACK 29 AUDIO
    TITLE "0:"
    INDEX 01 00:59:51
  TRACK 30 AUDIO
    TITLE "2:cjc139_0832"
    INDEX 01 01:00:74
  TRACK 31 AUDIO
    TITLE "0:"
    INDEX 01 01:04:56
  TRACK 32 AUDIO
    TITLE "2:cjc139_0833"
    INDEX 01 01:06:02
  TRACK 33 AUDIO
    TITLE "0:"
    INDEX 01 01:08:74
  TRACK 34 AUDIO
    TITLE "2:cjc139_0834"
    INDEX 01 01:10:22
  TRACK 35 AUDIO
    TITLE "0:"
    INDEX 01 01:13:26
  TRACK 36 AUDIO
    TITLE "2:cjc139_0835"
    INDEX 01 01:14:47
  TRACK 37 AUDIO
    TITLE "0:"
    INDEX 01 01:17:04
  TRACK 38 AUDIO
    TITLE "2:cjc139_0836"
    INDEX 01 01:18:25
  TRACK 39 AUDIO
    TITLE "0:"
    INDEX 01 01:20:67
  TRACK 40 AUDIO
    TITLE "2:cjc139_0837"
    INDEX 01 01:22:15
  TRACK 41 AUDIO
    TITLE "0:"
    INDEX 01 01:25:23
  TRACK 42 AUDIO
    TITLE "2:cjc139_0838"
    INDEX 01 01:26:44
  TRACK 43 AUDIO
    TITLE "0:"
    INDEX 01 01:29:35
  TRACK 44 AUDIO
    TITLE "2:cjc139_0839"
    INDEX 01 01:30:54
  TRACK 45 AUDIO
    TITLE "0:"
    INDEX 01 01:33:34
  TRACK 46 AUDIO
    TITLE "2:cjc139_0840"
    INDEX 01 01:34:55
  TRACK 47 AUDIO
    TITLE "0:"
    INDEX 01 01:37:60
  TRACK 48 AUDIO
    TITLE "2:cjc139_0841"
    INDEX 01 01:39:08
  TRACK 49 AUDIO
    TITLE "0:"
    INDEX 01 01:42:20
  TRACK 50 AUDIO
    TITLE "2:cjc139_0842"
    INDEX 01 01:43:43
  TRACK 51 AUDIO
    TITLE "0:"
    INDEX 01 01:46:31
  TRACK 52 AUDIO
    TITLE "2:cjc139_0843"
    INDEX 01 01:47:52
  TRACK 53 AUDIO
    TITLE "0:"
    INDEX 01 01:50:64
  TRACK 54 AUDIO
    TITLE "2:cjc139_0844"
    INDEX 01 01:52:10
  TRACK 55 AUDIO
    TITLE "0:"
    INDEX 01 01:55:03
  TRACK 56 AUDIO
    TITLE "2:cjc139_0845"
    INDEX 01 01:56:26
  TRACK 57 AUDIO
    TITLE "0:"
    INDEX 01 01:59:14
  TRACK 58 AUDIO
    TITLE "2:cjc139_0846"
    INDEX 01 02:00:31
  TRACK 59 AUDIO
    TITLE "0:"
    INDEX 01 02:02:30
  TRACK 60 AUDIO
    TITLE "2:cjc139_0847"
    INDEX 01 02:03:49
  TRACK 61 AUDIO
    TITLE "0:"
    INDEX 01 02:07:08
  TRACK 62 AUDIO
    TITLE "2:cjc139_0848"
    INDEX 01 02:08:29
  TRACK 63 AUDIO
    TITLE "0:"
    INDEX 01 02:11:25
  TRACK 64 AUDIO
    TITLE "2:cjc139_0849"
    INDEX 01 02:12:50
  TRACK 65 AUDIO
    TITLE "0:"
    INDEX 01 02:16:17
  TRACK 66 AUDIO
    TITLE "2:cjc139_0850"
    INDEX 01 02:17:38
  TRACK 67 AUDIO
    TITLE "0:"
    INDEX 01 02:20:32
  TRACK 68 AUDIO
    TITLE "2:cjc139_0851"
    INDEX 01 02:21:55
  TRACK 69 AUDIO
    TITLE "0:"
    INDEX 01 02:25:31
  TRACK 70 AUDIO
    TITLE "2:cjc139_0852"
    INDEX 01 02:26:52
  TRACK 71 AUDIO
    TITLE "0:"
    INDEX 01 02:30:38
  TRACK 72 AUDIO
    TITLE "2:cjc139_0853"
    INDEX 01 02:31:59
  TRACK 73 AUDIO
    TITLE "0:"
    INDEX 01 02:34:36
  TRACK 74 AUDIO
    TITLE "2:cjc139_0854"
    INDEX 01 02:35:59
  TRACK 75 AUDIO
    TITLE "0:"
    INDEX 01 02:38:28
  TRACK 76 AUDIO
    TITLE "2:cjc139_0855"
    INDEX 01 02:39:49
  TRACK 77 AUDIO
    TITLE "0:"
    INDEX 01 02:42:61
  TRACK 78 AUDIO
    TITLE "2:cjc139_0856"
    INDEX 01 02:44:11
  TRACK 79 AUDIO
    TITLE "0:"
    INDEX 01 02:47:13
  TRACK 80 AUDIO
    TITLE "2:cjc139_0857"
    INDEX 01 02:48:34
  TRACK 81 AUDIO
    TITLE "0:"
    INDEX 01 02:51:17
  TRACK 82 AUDIO
    TITLE "2:cjc139_0858"
    INDEX 01 02:52:38
  TRACK 83 AUDIO
    TITLE "0:"
    INDEX 01 02:56:08
  TRACK 84 AUDIO
    TITLE "2:cjc139_0859"
    INDEX 01 02:57:29
  TRACK 85 AUDIO
    TITLE "0:"
    INDEX 01 03:00:00
  TRACK 86 AUDIO
    TITLE "2:cjc139_0860"
    INDEX 01 03:01:23
  TRACK 87 AUDIO
    TITLE "0:"
    INDEX 01 03:03:59
  TRACK 88 AUDIO
    TITLE "2:cjc139_0861"
    INDEX 01 03:05:05
  TRACK 89 AUDIO
    TITLE "0:"
    INDEX 01 03:07:49
  TRACK 90 AUDIO
    TITLE "2:cjc139_0862"
    INDEX 01 03:08:74
  TRACK 91 AUDIO
    TITLE "0:"
    INDEX 01 03:12:00
